<svg width="165" height="24" viewBox="0 0 165 24" fill="none" xmlns="http://www.w3.org/2000/svg">
<path d="M108.624 0H102.816V24H108.624V0Z" fill="white"/>
<path d="M48.0633 9.63641H53.8713L48.0633 14.3577V24H64.8172V19.2904H53.8713V14.3577H60.9609V9.63641H53.8713V4.70957H64.8172V0H48.0633V9.63641Z" fill="white"/>
<path d="M158.51 0L153.431 10.0416H153.219L148.14 0H141.65L150.439 15.9843V24H156.212V15.9843L165 0H158.51Z" fill="white"/>
<path d="M117.977 9.63641H123.779L117.977 14.3577V24H123.779V14.3577H130.875V9.63641H123.779V4.70957H134.378V0H117.977V9.63641Z" fill="white"/>
<path d="M94.8274 0H88.3257L83.8932 7.58111H83.7051L79.3197 0H72.7709L80.031 12.0029L72.5828 24H79.2021L83.7051 16.3367H83.8932L88.3962 24H95.0625L87.5791 12.0029L94.8274 0Z" fill="white"/>
<path d="M0 9.63641H5.80804L0 14.3577V24H5.80804V14.3577H12.8976V9.63641H5.80804V4.70957H16.4012V0H0V9.63641Z" fill="white"/>
<path d="M30.2042 0H24.3961V24H40.2036V19.2904H30.2042V0Z" fill="white"/>
</svg>
