<svg width="75" height="75" viewBox="0 0 75 75" fill="none" xmlns="http://www.w3.org/2000/svg">
<circle cx="37.5" cy="37.5" r="37.5" fill="#D3D3D3"/>
<g clip-path="url(#clip0_2_74)">
<path d="M39.5902 40.944C39.7527 40.6375 39.9012 40.3221 40.0356 39.9977C40.17 39.6734 40.2877 39.3463 40.3889 39.0163H42.2952C42.4519 39.0161 42.607 38.985 42.7517 38.9248C42.8964 38.8646 43.0278 38.7764 43.1383 38.6654C43.2494 38.555 43.3375 38.4237 43.3975 38.279C43.4575 38.1343 43.4882 37.9792 43.4878 37.8226V33.6532C43.4882 33.4966 43.4574 33.3415 43.3974 33.1969C43.3375 33.0522 43.2494 32.9209 43.1383 32.8104C43.0277 32.6996 42.8963 32.6117 42.7516 32.5517C42.6069 32.4918 42.4518 32.461 42.2952 32.4611H40.3889C40.2854 32.124 40.1674 31.7953 40.0356 31.4781C39.9037 31.1609 39.752 30.8376 39.5895 30.5311L40.9377 29.1842C41.1609 28.9605 41.2862 28.6574 41.2862 28.3415C41.2862 28.0255 41.1609 27.7224 40.9377 27.4987L37.9852 24.549C37.8749 24.4385 37.7438 24.3508 37.5995 24.291C37.4552 24.2312 37.3006 24.2004 37.1444 24.2004C36.9882 24.2004 36.8335 24.2312 36.6892 24.291C36.5449 24.3508 36.4139 24.4385 36.3035 24.549L34.9522 25.8959C34.6456 25.7335 34.3298 25.5848 34.0048 25.45C33.6798 25.3152 33.3523 25.1974 33.0222 25.0968V23.1906C33.0216 22.8749 32.8958 22.5723 32.6724 22.3491C32.449 22.1259 32.1462 22.0004 31.8303 22H27.656C27.3403 22.0006 27.0377 22.1262 26.8144 22.3494C26.5912 22.5725 26.4655 22.875 26.4649 23.1906V25.0968C26.1276 25.199 25.8001 25.3167 25.4822 25.45C25.1644 25.5833 24.8486 25.7319 24.5349 25.8959L23.1866 24.5475C22.9628 24.3244 22.6596 24.1991 22.3435 24.1991C22.0274 24.1991 21.7242 24.3244 21.5003 24.5475L18.5493 27.4987C18.4386 27.6093 18.3507 27.7407 18.2907 27.8853C18.2308 28.0299 18.1999 28.1849 18.1999 28.3415C18.1999 28.498 18.2308 28.653 18.2907 28.7976C18.3507 28.9422 18.4386 29.0736 18.5493 29.1842L19.8968 30.5311C19.7343 30.8376 19.5856 31.1533 19.4507 31.4781C19.3197 31.7953 19.2009 32.1232 19.0974 32.4611H17.1919C17.0353 32.4609 16.8801 32.4916 16.7354 32.5516C16.5907 32.6116 16.4593 32.6995 16.3488 32.8104C16.2381 32.9211 16.1503 33.0526 16.0905 33.1972C16.0307 33.3418 15.9999 33.4967 16 33.6532V37.8257C16.001 38.1413 16.1269 38.4437 16.3503 38.6667C16.5736 38.8898 16.8762 39.0155 17.1919 39.0163H19.0981C19.2016 39.3542 19.3204 39.6829 19.4515 40C19.5826 40.3172 19.7351 40.6406 19.8976 40.9462L18.5493 42.2916C18.3265 42.5146 18.2012 42.8169 18.2012 43.1321C18.2012 43.4473 18.3265 43.7496 18.5493 43.9726L21.5011 46.9238C21.7242 47.1466 22.0266 47.2717 22.3419 47.2717C22.6573 47.2717 22.9597 47.1466 23.1828 46.9238L24.5318 45.5754C24.8384 45.7385 25.1565 45.8879 25.4784 46.0213C25.8003 46.1546 26.1238 46.271 26.461 46.3745V48.2868C26.4611 48.4433 26.4919 48.5983 26.5519 48.7429C26.6119 48.8875 26.6998 49.0189 26.8106 49.1296C26.9211 49.2406 27.0524 49.3288 27.1971 49.389C27.3418 49.4493 27.497 49.4803 27.6537 49.4804H31.828C31.9847 49.4803 32.1399 49.4492 32.2846 49.389C32.4292 49.3288 32.5606 49.2406 32.6711 49.1296C32.7821 49.0191 32.8702 48.8877 32.9302 48.7431C32.9901 48.5984 33.0209 48.4434 33.0207 48.2868V46.3775C33.3579 46.2754 33.6855 46.1579 34.0033 46.0251C34.3211 45.8923 34.6367 45.7434 34.9499 45.5784L36.2989 46.9269C36.4096 47.0376 36.5411 47.1254 36.6857 47.1854C36.8304 47.2453 36.9855 47.2761 37.1421 47.2761C37.2987 47.2761 37.4537 47.2453 37.5984 47.1854C37.7431 47.1254 37.8745 47.0376 37.9852 46.9269L40.937 43.9756C41.1603 43.752 41.2858 43.4489 41.2858 43.1329C41.2858 42.8168 41.1603 42.5137 40.937 42.2901L39.5902 40.944ZM29.7439 41.442C28.607 41.4447 27.4953 41.1068 26.5523 40.472C26.4848 40.426 26.4189 40.3785 26.3537 40.3303L26.31 40.2981C26.2472 40.2506 26.1851 40.2015 26.1246 40.1517C26.1123 40.1426 26.1008 40.1326 26.0893 40.1226C26.0356 40.0774 25.9828 40.0322 25.9306 39.9855L25.8954 39.9533C25.8379 39.9012 25.7819 39.8476 25.7267 39.7932L25.6838 39.7495C25.6309 39.6966 25.5796 39.643 25.5305 39.5871L25.5098 39.5649C25.4608 39.5105 25.4125 39.4545 25.365 39.3978L25.3228 39.3473C25.2753 39.2883 25.2278 39.2293 25.1825 39.168C25.171 39.1534 25.1603 39.1374 25.1488 39.1228C25.1105 39.0699 25.0722 39.0171 25.0354 38.9634L25.0024 38.9152C24.9603 38.8531 24.9196 38.7888 24.8805 38.7244C24.8683 38.7052 24.856 38.6853 24.8445 38.6654C24.8077 38.6041 24.7725 38.5428 24.738 38.48C24.7303 38.467 24.7234 38.4532 24.7157 38.4394C24.682 38.3773 24.6498 38.3137 24.6184 38.2501L24.5877 38.1858C24.5556 38.1176 24.5241 38.0494 24.4942 37.9797C24.4858 37.9605 24.4781 37.9406 24.4705 37.9215C24.4459 37.8625 24.4222 37.8035 24.4 37.7437C24.3923 37.7238 24.3846 37.7039 24.3777 37.6832C24.3517 37.6127 24.3279 37.5407 24.3011 37.4687C24.2934 37.4449 24.2857 37.4204 24.2788 37.3967C24.2589 37.33 24.2398 37.2633 24.2214 37.1959C24.2168 37.176 24.2114 37.1561 24.2068 37.1369C24.1899 37.0695 24.1738 37.0021 24.1593 36.9339C24.1539 36.9078 24.1485 36.8826 24.1439 36.8573C24.1286 36.7807 24.1156 36.704 24.1033 36.632C24.1033 36.6083 24.0964 36.5845 24.0934 36.5608C24.0842 36.4987 24.0765 36.4367 24.0696 36.3738C24.0696 36.3501 24.0635 36.3256 24.0612 36.3018C24.0543 36.2252 24.0481 36.1486 24.0443 36.072C24.0443 36.0444 24.0443 36.016 24.0397 35.9885C24.0397 35.9187 24.0351 35.8498 24.0343 35.7801V35.7418C24.0343 34.6135 24.3691 33.5105 24.9962 32.5723C25.6233 31.6342 26.5147 30.903 27.5575 30.4712C28.6004 30.0394 29.7479 29.9265 30.8551 30.1466C31.9622 30.3667 32.9791 30.91 33.7773 31.7079C34.5754 32.5057 35.119 33.5222 35.3392 34.6288C35.5594 35.7354 35.4464 36.8825 35.0145 37.9249C34.5825 38.9673 33.851 39.8583 32.9124 40.4851C31.9739 41.112 30.8704 41.4465 29.7416 41.4465L29.7439 41.442Z" fill="#606060"/>
<path d="M29.7432 40.5624C32.4092 40.5624 34.5705 38.4021 34.5705 35.7372C34.5705 33.0723 32.4092 30.9119 29.7432 30.9119C27.0771 30.9119 24.9158 33.0723 24.9158 35.7372C24.9158 38.4021 27.0771 40.5624 29.7432 40.5624Z" fill="#606060"/>
<path d="M53.9305 49.469C54.0163 49.3065 54.095 49.139 54.1666 48.9664C54.2371 48.7978 54.2992 48.6231 54.3544 48.4438H55.3669C55.45 48.4437 55.5322 48.4272 55.6089 48.3953C55.6856 48.3633 55.7552 48.3165 55.8138 48.2577C55.9325 48.139 55.9992 47.9781 55.9992 47.8102V45.5953C55.9992 45.5124 55.9828 45.4304 55.951 45.3538C55.9191 45.2773 55.8725 45.2078 55.8138 45.1494C55.7553 45.0907 55.6857 45.044 55.6092 45.0122C55.5326 44.9804 55.4506 44.964 55.3677 44.964H54.3544C54.2992 44.7847 54.2366 44.6105 54.1666 44.4414C54.0966 44.2724 54.0176 44.1049 53.9297 43.9388L54.6456 43.2225C54.764 43.1036 54.8304 42.9428 54.8304 42.7751C54.8304 42.6074 54.764 42.4465 54.6456 42.3276L53.0782 40.7608C53.0196 40.7021 52.95 40.6554 52.8734 40.6236C52.7968 40.5918 52.7146 40.5754 52.6317 40.5754C52.5487 40.5754 52.4666 40.5918 52.3899 40.6236C52.3133 40.6554 52.2437 40.7021 52.1852 40.7608L51.4693 41.4764C51.3063 41.3896 51.1384 41.3107 50.9657 41.2397C50.793 41.1687 50.6193 41.1061 50.4445 41.052V40.0399C50.4441 39.8722 50.3773 39.7114 50.2586 39.5928C50.14 39.4743 49.9792 39.4074 49.8114 39.407H47.5939C47.4261 39.4072 47.2653 39.474 47.1467 39.5927C47.0282 39.7113 46.9616 39.8722 46.9616 40.0399V41.052C46.7822 41.1071 46.6082 41.1697 46.4396 41.2397C46.271 41.3097 46.1031 41.3886 45.936 41.4764L45.2178 40.7601C45.0989 40.6418 44.9379 40.5754 44.7702 40.5754C44.6024 40.5754 44.4415 40.6418 44.3226 40.7601L42.7551 42.3276C42.6368 42.4462 42.5705 42.6069 42.5705 42.7743C42.5705 42.9417 42.6368 43.1023 42.7551 43.221L43.471 43.9358C43.3851 44.0987 43.3062 44.2663 43.2341 44.4384C43.1644 44.6069 43.1015 44.7816 43.0463 44.9609H42.0338C41.9508 44.9609 41.8686 44.9773 41.7919 45.0091C41.7152 45.041 41.6456 45.0876 41.587 45.1463C41.528 45.2048 41.4812 45.2744 41.4492 45.3511C41.4173 45.4277 41.4008 45.5099 41.4007 45.593V47.8087C41.4007 47.9764 41.4673 48.1373 41.5859 48.2559C41.7044 48.3746 41.8653 48.4413 42.033 48.4415H43.0456C43.1008 48.6208 43.1636 48.7955 43.2334 48.9641C43.3031 49.1326 43.3867 49.3042 43.4702 49.4667L42.7543 50.1822C42.6359 50.3006 42.5694 50.4612 42.5694 50.6285C42.5694 50.7959 42.6359 50.9564 42.7543 51.0748L44.3218 52.6416C44.4402 52.7599 44.6008 52.8264 44.7683 52.8264C44.9357 52.8264 45.0963 52.7599 45.2147 52.6416L45.9314 51.9253C46.0954 52.0126 46.263 52.0918 46.4342 52.1628C46.6029 52.2325 46.7768 52.2953 46.9562 52.3497V53.3626C46.9562 53.4455 46.9726 53.5277 47.0045 53.6043C47.0363 53.681 47.0829 53.7506 47.1417 53.8092C47.26 53.9276 47.4204 53.9943 47.5878 53.9946H49.8091C49.9767 53.9942 50.1373 53.9276 50.2559 53.8092C50.315 53.7508 50.3618 53.6812 50.3938 53.6045C50.4257 53.5278 50.4422 53.4456 50.4422 53.3626V52.3543C50.6208 52.2999 50.7948 52.2371 50.9634 52.1674C51.132 52.0976 51.303 52.0141 51.4662 51.9298L52.1829 52.6462C52.3017 52.7644 52.4625 52.8308 52.6301 52.8308C52.7978 52.8308 52.9586 52.7644 53.0774 52.6462L54.6456 51.0794C54.7641 50.9606 54.8307 50.7997 54.8307 50.632C54.8307 50.4642 54.7641 50.3033 54.6456 50.1845L53.9305 49.469ZM48.7007 49.7333C48.0968 49.7342 47.5065 49.5541 47.006 49.2161C46.97 49.1916 46.9347 49.1663 46.9003 49.1395L46.8765 49.1219C46.8435 49.0966 46.8106 49.0713 46.7784 49.0453L46.76 49.03C46.7309 49.0062 46.7033 48.9817 46.6757 48.9533L46.6565 48.9365C46.6258 48.9089 46.5967 48.8805 46.5676 48.8514L46.5446 48.8285C46.5162 48.8001 46.4886 48.7718 46.4618 48.7426L46.4511 48.7304C46.425 48.7013 46.399 48.6714 46.3744 48.6415C46.3668 48.6323 46.3591 48.6239 46.3522 48.6147C46.3262 48.5833 46.3016 48.5519 46.2756 48.5197C46.2694 48.512 46.2641 48.5036 46.2579 48.4952C46.2372 48.4676 46.2173 48.4392 46.1974 48.4109L46.1798 48.3856C46.1573 48.3519 46.1358 48.3182 46.1154 48.2845C46.1085 48.2738 46.1023 48.263 46.0962 48.2523C46.077 48.2201 46.0579 48.1872 46.0395 48.1542L46.028 48.1328C46.0096 48.0998 45.9927 48.0661 45.9766 48.0324C45.9705 48.0209 45.9651 48.0094 45.9598 47.9979C45.9421 47.9619 45.926 47.9252 45.9099 47.8884L45.8977 47.8577C45.8847 47.8263 45.8724 47.7949 45.8601 47.7635L45.8479 47.7313C45.8348 47.6938 45.8218 47.6547 45.8095 47.6172L45.798 47.5789C45.7873 47.5436 45.7766 47.5084 45.7674 47.4724C45.7674 47.4616 45.762 47.4509 45.759 47.4409C45.7505 47.4049 45.7421 47.3689 45.7344 47.3329C45.7344 47.3191 45.7291 47.3061 45.726 47.2923C45.7183 47.2525 45.7107 47.2157 45.7045 47.1728C45.7045 47.1598 45.7007 47.1475 45.6992 47.1352C45.6946 47.1023 45.69 47.0686 45.6869 47.0356L45.6823 46.9973C45.6785 46.9567 45.6754 46.9161 45.6731 46.8748V46.8303C45.6731 46.7935 45.6731 46.7537 45.6731 46.72V46.6993C45.6731 46.1 45.8509 45.5142 46.184 45.0158C46.5171 44.5175 46.9905 44.1292 47.5445 43.8998C48.0984 43.6705 48.7079 43.6105 49.296 43.7274C49.884 43.8443 50.4242 44.1329 50.8481 44.5567C51.2721 44.9804 51.5608 45.5204 51.6778 46.1082C51.7948 46.6959 51.7347 47.3052 51.5053 47.8589C51.2758 48.4126 50.8873 48.8858 50.3888 49.2188C49.8902 49.5517 49.3041 49.7294 48.7046 49.7294L48.7007 49.7333Z" fill="#606060"/>
<path d="M48.7 49.266C50.116 49.266 51.2639 48.1186 51.2639 46.7032C51.2639 45.2878 50.116 44.1404 48.7 44.1404C47.2839 44.1404 46.136 45.2878 46.136 46.7032C46.136 48.1186 47.2839 49.266 48.7 49.266Z" fill="#606060"/>
</g>
<defs>
<clipPath id="clip0_2_74">
<rect width="40" height="32" fill="white" transform="translate(16 22)"/>
</clipPath>
</defs>
</svg>
