<svg width="75" height="75" viewBox="0 0 75 75" fill="none" xmlns="http://www.w3.org/2000/svg">
<circle cx="37.5" cy="37.5" r="37.5" fill="#D3D3D3"/>
<path d="M51.9849 37.9699C51.9849 30.2405 45.5881 24 37.7743 24C37.2886 24 36.8026 24.0404 36.317 24.0805V51.8993C36.8027 51.9397 37.2887 51.9798 37.7743 51.9798C45.5881 51.9397 51.9849 45.6593 51.9849 37.97V37.9699ZM41.3776 50.0878C42.3897 49.4839 43.2804 48.719 44.0901 47.8333H45.75C44.4949 48.8397 42.9968 49.6045 41.3775 50.0878H41.3776ZM47.248 46.4643H45.1833C45.4262 46.1423 45.6287 45.7799 45.8312 45.4176H48.0984C47.8553 45.7799 47.5315 46.1022 47.248 46.4643H47.248ZM48.9889 44.0489H46.4789C47.1671 42.4384 47.6124 40.6268 47.6934 38.6943H50.5275C50.4463 40.6268 49.8796 42.4386 48.9889 44.0489ZM50.5678 37.3661H47.7337C47.6931 36.4403 47.5718 35.5141 47.4099 34.6284H50.1631C50.4059 35.5141 50.5275 36.3999 50.5678 37.3661H50.5678ZM48.3816 30.9248C48.9079 31.6495 49.3127 32.4545 49.6771 33.3001H47.0455C46.762 32.4548 46.4382 31.6897 46.0738 30.9248H48.3816ZM47.329 29.5558H45.2237C44.1711 28.026 42.8756 26.7376 41.337 25.8519C43.6854 26.4961 45.75 27.8247 47.329 29.5558ZM39.0297 39.1373H40.4061V39.6606C40.4061 40.184 40.8109 40.6269 41.3372 40.6269H42.6326C43.1589 40.6269 43.5637 40.184 43.5637 39.6606L43.5639 39.54C43.5639 39.3386 43.3614 39.0971 43.0376 38.8556L41.4587 38.4532L40.5679 38.2117L40.3654 38.1713L40.2441 38.1309C39.2321 37.4867 39.0296 36.7622 39.0296 36.2789V36.1984C39.0296 34.9102 40.0416 33.8635 41.3374 33.8635H41.4183V32.7764H42.7948V33.8635C44.0093 33.944 44.9406 34.9506 44.9406 36.1984H43.5642C43.5642 35.6751 43.1594 35.2322 42.6331 35.2322H41.3376C40.8113 35.2322 40.4066 35.675 40.4066 36.1984V36.2789C40.4066 36.5204 40.6901 36.8023 40.9329 36.9633L41.2164 37.0438L43.5645 37.6477L43.6454 37.7282C44.4552 38.2515 44.9005 38.8958 44.9005 39.6202V39.7007C44.9005 40.9488 43.9288 41.9552 42.7547 42.0357L42.7542 43.1631H41.3777V41.9955H41.2968C40.0416 41.9955 38.989 40.9488 38.989 39.6606V39.1372L39.0297 39.1373Z" fill="#606060"/>
<path d="M35.021 50.1277V43.002H30.5677C31.8631 46.9876 34.3735 49.5239 35.021 50.1277Z" fill="#606060"/>
<path d="M35.021 34.3868H30.1223C29.8794 35.4739 29.7175 36.6413 29.7175 37.9295C29.7175 39.1776 29.8794 40.3853 30.1223 41.4721H35.021V34.3868Z" fill="#606060"/>
<path d="M22.9967 32.8566H28.9078C30.4058 27.8244 33.7255 24.9257 33.8874 24.7648C33.928 24.7244 34.1303 24.5233 34.4137 24.3219C29.2315 24.8051 24.8591 28.1868 22.9966 32.8567L22.9967 32.8566Z" fill="#606060"/>
<path d="M28.5434 41.4725C28.3006 40.3854 28.179 39.1777 28.179 37.9299C28.179 36.6818 28.3409 35.5144 28.5434 34.3872L22.5111 34.387C22.1873 35.5142 22.0251 36.6818 22.0251 37.9296C22.0251 39.1373 22.187 40.3451 22.5109 41.4723L28.5434 41.4725Z" fill="#606060"/>
<path d="M30.5276 32.8566H35.0216L35.0214 25.8115C34.9808 25.8519 34.9404 25.8519 34.9404 25.892C34.8595 25.9324 31.985 28.4687 30.5277 32.8567L30.5276 32.8566Z" fill="#606060"/>
<path d="M22.9967 43.002C24.8591 47.5917 29.1506 50.933 34.252 51.4969L34.171 51.4164C33.9685 51.2554 30.5274 48.1958 28.9484 43.002L22.9967 43.002Z" fill="#606060"/>
</svg>
