<?xml version="1.0" encoding="UTF-8"?> <svg xmlns="http://www.w3.org/2000/svg" width="512" height="512" viewBox="0 0 512 512" fill="none"> <path d="M486.4 0H213.333C199.201 0.015 187.748 11.468 187.733 25.6V76.8H25.6C11.468 76.815 0.015 88.268 0 102.4V452.267C0.015 466.399 11.468 477.852 25.6 477.867H187.733V486.4C187.748 500.532 199.201 511.985 213.333 512H486.4C500.532 511.985 511.985 500.532 512 486.4V426.667C512.001 421.955 508.183 418.135 503.471 418.134C503.47 418.134 503.468 418.134 503.467 418.134C494.041 418.134 486.4 410.493 486.4 401.067C486.4 391.641 494.041 384 503.467 384C508.179 384.001 511.999 380.183 512 375.471C512 375.47 512 375.468 512 375.467V25.6C511.985 11.468 500.532 0.015 486.4 0ZM25.6 460.8C20.889 460.795 17.071 456.977 17.067 452.267V102.4C17.072 97.689 20.889 93.871 25.6 93.867H273.067C277.778 93.872 281.596 97.689 281.6 102.4V452.267C281.595 456.978 277.777 460.796 273.067 460.8H25.6V460.8ZM247.467 494.933H213.334C208.623 494.928 204.805 491.111 204.801 486.4V477.867H247.468V494.933H247.467ZM494.933 368.013C476.678 372.729 465.702 391.351 470.418 409.606C473.524 421.628 482.911 431.015 494.933 434.121V486.4C494.928 491.111 491.111 494.929 486.4 494.933H452.267V435.2C452.267 430.487 448.447 426.667 443.734 426.667C439.021 426.667 435.201 430.487 435.201 435.2V494.933H264.533V477.866H273.066C287.198 477.851 298.651 466.398 298.666 452.266V102.4C298.651 88.268 287.198 76.815 273.066 76.8H204.8V25.6C204.805 20.889 208.623 17.071 213.333 17.067H247.466V51.2C247.466 55.913 251.286 59.733 255.999 59.733C260.712 59.733 264.532 55.913 264.532 51.2V17.067H435.2V366.934C435.2 371.647 439.02 375.467 443.733 375.467C448.446 375.467 452.266 371.647 452.266 366.934V17.067H486.4C491.111 17.072 494.929 20.889 494.933 25.6V368.013Z" fill="white"></path> <path d="M435.25 392.484C432.958 392.471 430.756 393.38 429.142 395.008C427.581 396.642 426.697 398.807 426.667 401.067C426.685 401.638 426.741 402.207 426.834 402.771C426.93 403.306 427.104 403.824 427.351 404.309C427.535 404.854 427.793 405.371 428.118 405.847C428.435 406.293 428.777 406.72 429.143 407.126C432.508 410.426 437.895 410.426 441.26 407.126C441.601 406.697 441.943 406.272 442.285 405.847C442.606 405.37 442.864 404.853 443.052 404.309C443.299 403.826 443.471 403.307 443.56 402.771C443.66 402.208 443.718 401.638 443.735 401.067C443.761 396.354 439.963 392.511 435.25 392.484Z" fill="white"></path> <path d="M407.125 395.008C404.669 392.591 401.004 391.884 397.825 393.212C395.684 393.992 393.997 395.679 393.217 397.82C392.306 399.887 392.306 402.241 393.217 404.307C393.994 406.45 395.682 408.138 397.825 408.915C398.85 409.353 399.952 409.585 401.067 409.599C405.799 409.58 409.62 405.729 409.601 400.997C409.592 398.754 408.703 396.604 407.125 395.008Z" fill="white"></path> <path d="M372.991 395.008C370.52 392.622 366.873 391.918 363.691 393.212C362.646 393.625 361.69 394.234 360.874 395.008C357.555 398.354 357.577 403.757 360.923 407.076C364.269 410.395 369.672 410.373 372.991 407.027C376.291 403.7 376.291 398.335 372.991 395.008Z" fill="white"></path> <path d="M338.895 395.044C336.857 392.994 333.921 392.113 331.092 392.704C330.558 392.795 330.041 392.967 329.559 393.212C329.013 393.399 328.495 393.659 328.017 393.983L326.742 395.008C323.442 398.373 323.442 403.76 326.742 407.125C327.167 407.466 327.592 407.808 328.017 408.146C328.494 408.47 329.013 408.729 329.559 408.917C330.042 409.162 330.559 409.335 331.092 409.43C331.657 409.528 332.228 409.585 332.801 409.601C333.343 409.585 333.884 409.528 334.418 409.43C334.984 409.348 335.533 409.175 336.043 408.918C336.567 408.747 337.058 408.486 337.493 408.147C338.001 407.809 338.435 407.468 338.86 407.126C342.205 403.799 342.221 398.391 338.895 395.044Z" fill="white"></path> <path d="M230.4 128H68.2669C63.5539 128 59.7339 131.82 59.7339 136.533C59.7339 141.246 63.5539 145.066 68.2669 145.066H230.4C235.113 145.066 238.933 141.246 238.933 136.533C238.933 131.82 235.113 128 230.4 128Z" fill="white"></path> <path d="M230.404 409.6C230.402 409.6 230.401 409.6 230.4 409.6H68.2669C63.5539 409.6 59.7339 413.42 59.7339 418.133C59.7339 422.846 63.5539 426.666 68.2669 426.666H230.4C235.112 426.667 238.932 422.849 238.933 418.137C238.933 418.136 238.933 418.134 238.933 418.133C238.935 413.422 235.116 409.601 230.404 409.6Z" fill="white"></path> <path d="M230.4 162.133H68.2669C63.5539 162.133 59.7339 165.953 59.7339 170.666C59.7339 175.379 63.5539 179.199 68.2669 179.199H230.4C235.113 179.199 238.933 175.379 238.933 170.666C238.933 165.953 235.113 162.133 230.4 162.133Z" fill="white"></path> <path d="M149.618 204.8C140.888 204.786 132.204 206.048 123.839 208.546L123.781 208.561C76.3612 222.661 49.3502 272.533 63.4502 319.953C74.7502 357.955 109.687 384.009 149.334 383.999C198.819 384.078 238.998 344.026 239.076 294.541C239.154 245.058 199.102 204.879 149.618 204.8ZM93.8672 340.308V341.041C68.1042 310.546 71.9412 264.94 102.436 239.177C103.144 238.579 103.863 237.995 104.594 237.424C86.7722 272.504 92.9162 279.204 96.1922 282.674C100.585 286.698 105.759 289.774 111.392 291.711C114.375 292.974 120.567 295.599 121.167 297.174C121.159 298.288 120.851 299.379 120.275 300.332C117.495 305.711 113.48 310.355 108.559 313.882C99.5552 319.685 94.0432 329.599 93.8672 340.308ZM110.933 355.821V340.308C110.933 334.341 113.4 332.054 119.466 327.008C126.337 321.91 131.905 315.26 135.716 307.6C138.472 302.534 138.977 296.544 137.108 291.087C133.116 283.641 126.22 278.18 118.058 275.999C115.084 274.872 112.228 273.454 109.533 271.766C109.702 266.822 115.526 251.09 131.445 224.19C142.704 221.217 154.526 221.094 165.843 223.835H165.842C159.434 230.271 155.16 238.52 153.598 247.466C154.525 254.115 158.284 260.038 163.906 263.708C172.148 271.133 173.573 273.762 171.564 277.783C160.697 299.512 162.331 329.641 183.914 340.433C188.768 342.333 192.949 345.629 195.931 349.904C171.919 370.194 137.528 372.589 110.933 355.821ZM207.756 337.205C203.238 332.122 197.721 328.024 191.55 325.167C179.958 319.371 179.758 299.567 186.833 285.417C195.116 268.854 182.241 257.259 175.333 251.029C173.773 249.681 172.288 248.25 170.883 246.742C174.077 240.653 178.182 235.088 183.056 230.239C206.896 242.768 221.837 267.469 221.866 294.401C221.862 309.81 216.916 324.813 207.756 337.205Z" fill="white"></path> <path d="M413.992 120.683L375.467 97.5679V68.2669C375.467 63.5539 371.647 59.7339 366.934 59.7339C362.221 59.7339 358.401 63.5539 358.401 68.2669V97.5689L319.876 120.684C315.835 123.109 314.526 128.351 316.951 132.392C319.376 136.433 324.618 137.742 328.659 135.317L358.4 117.47V158.6L343.834 173.166C340.481 176.477 340.447 181.879 343.758 185.232C347.069 188.585 352.471 188.619 355.824 185.308C355.85 185.283 355.875 185.258 355.9 185.232L366.934 174.199L377.968 185.233C381.321 188.544 386.723 188.511 390.034 185.158C393.316 181.835 393.316 176.489 390.034 173.166L375.467 158.6V117.47L405.209 135.316C409.25 137.741 414.492 136.432 416.917 132.391C419.342 128.351 418.033 123.109 413.992 120.683Z" fill="white"></path> <path d="M366.938 196.267C366.937 196.267 366.935 196.267 366.934 196.267C362.222 196.266 358.402 200.084 358.401 204.796C358.401 204.797 358.401 204.799 358.401 204.8V366.933C358.401 371.646 362.221 375.466 366.934 375.466C371.647 375.466 375.467 371.646 375.467 366.933V204.8C375.468 200.088 371.649 196.268 366.938 196.267Z" fill="white"></path> <path d="M332.804 196.267C332.803 196.267 332.801 196.267 332.8 196.267C328.088 196.266 324.268 200.084 324.267 204.796C324.267 204.797 324.267 204.799 324.267 204.8V366.933C324.267 371.646 328.088 375.466 332.8 375.466C337.513 375.466 341.333 371.646 341.333 366.933V204.8C341.335 200.088 337.516 196.268 332.804 196.267Z" fill="white"></path> <path d="M401.071 196.267C401.07 196.267 401.068 196.267 401.067 196.267C396.355 196.266 392.535 200.084 392.534 204.796C392.534 204.797 392.534 204.799 392.534 204.8V366.933C392.534 371.646 396.355 375.466 401.067 375.466C405.779 375.466 409.6 371.646 409.6 366.933V204.8C409.601 200.088 405.783 196.268 401.071 196.267Z" fill="white"></path> </svg> 