<?xml version="1.0" encoding="UTF-8"?> <svg xmlns="http://www.w3.org/2000/svg" width="227" height="87" viewBox="0 0 227 87" fill="none"> <path d="M6.85498 5.98171C7.38233 5.98171 7.73391 6.333 7.73391 6.85993L7.7339 26.8834C7.7339 39.881 18.4569 50.5953 31.465 50.5953L192.133 50.5953C207.954 50.5953 220.787 63.4173 220.787 79.2253C220.787 79.7522 220.435 80.1035 219.908 80.1035C219.38 80.1035 219.029 79.7522 219.029 79.2253C219.029 64.4712 207.075 52.5274 192.309 52.5274L31.6408 52.5274C17.5779 52.5274 5.97604 41.1105 5.97604 26.8834L5.97605 6.85993C5.80026 6.50865 6.32762 5.98171 6.85498 5.98171Z" fill="#9FA0A4"></path> <path d="M213.052 79.4007C213.052 83.0892 216.041 86.0752 219.732 86.0752C223.424 86.0752 226.412 83.0892 226.412 79.4007C226.412 75.7122 223.424 72.7262 219.732 72.7262C216.041 72.7262 213.052 75.7122 213.052 79.4007Z" fill="#303942"></path> <path d="M-0.000365294 7.03549C-0.000365616 10.724 2.988 13.71 6.6795 13.71C10.371 13.71 13.3594 10.724 13.3594 7.03549C13.3594 3.34697 10.371 0.361023 6.67951 0.361023C3.16379 0.361022 -0.000364971 3.34697 -0.000365294 7.03549Z" fill="#303942"></path> </svg> 