<?xml version="1.0" encoding="UTF-8"?> <svg xmlns="http://www.w3.org/2000/svg" width="512" height="512" viewBox="0 0 512 512" fill="none"> <path d="M278.32 413.418C283.844 413.418 288.32 408.937 288.32 403.418V229.914C288.32 224.391 283.844 219.914 278.32 219.914C272.797 219.914 268.32 224.391 268.32 229.914V403.418C268.32 408.937 272.797 413.418 278.32 413.418Z" fill="white"></path> <path d="M235.301 413.418C240.824 413.418 245.301 408.937 245.301 403.418V229.914C245.301 224.391 240.824 219.914 235.301 219.914C229.777 219.914 225.301 224.391 225.301 229.914V403.418C225.301 408.937 229.777 413.418 235.301 413.418Z" fill="white"></path> <path d="M233.254 84.8867H189.148C183.629 84.8867 179.148 89.3633 179.148 94.8867V138.531C179.148 144.051 183.629 148.531 189.148 148.531H233.254C238.773 148.531 243.254 144.051 243.254 138.531V94.8867C243.254 89.3633 238.773 84.8867 233.254 84.8867ZM223.254 128.527H199.148V104.887H223.254V128.527Z" fill="white"></path> <path d="M317.422 84.8867H273.32C267.797 84.8867 263.32 89.3633 263.32 94.8867V138.531C263.32 144.051 267.797 148.531 273.32 148.531H317.422C322.945 148.531 327.422 144.051 327.422 138.531V94.8867C327.422 89.3633 322.945 84.8867 317.422 84.8867ZM307.422 128.527H283.32V104.887H307.422V128.527Z" fill="white"></path> <path d="M461.996 375.969H414.707V192.547C419.996 192.285 424.211 187.926 424.211 182.57C424.211 177.051 419.734 172.57 414.211 172.57H367.641V60.8438H368.277C373.801 60.8438 378.277 56.3633 378.277 50.8438C378.277 45.3203 373.801 40.8438 368.277 40.8438H337.617V19.9883C343.035 19.8672 347.391 15.4453 347.391 10C347.391 4.47656 342.914 0 337.391 0H166.219C160.695 0 156.219 4.47656 156.219 10C156.219 15.5234 160.695 20 166.219 20H166.383V40.8438H137.047C131.523 40.8438 127.047 45.3203 127.047 50.8438C127.047 56.1328 131.156 60.4531 136.359 60.8086V172.57H98.2109C92.6875 172.57 88.2109 177.051 88.2109 182.57C88.2109 188.094 92.6875 192.57 98.2109 192.57H98.2891V375.969H51C45.4766 375.969 41 380.449 41 385.969V502C41 507.523 45.4766 512 51 512H461.996C467.52 512 471.996 507.523 471.996 502V385.969C471.996 380.445 467.52 375.969 461.996 375.969V375.969ZM186.383 20H317.617V40.8438H186.383V20ZM156.355 60.8438H347.641V172.57H156.355V60.8438ZM61 395.969H98.2891V492H61V395.969ZM160.133 492V367.945C160.133 362.422 155.652 357.945 150.133 357.945C144.609 357.945 140.133 362.422 140.133 367.945V492H118.289V192.57H394.707V492H373.492V229.914C373.492 224.391 369.016 219.914 363.492 219.914H320.473C314.949 219.914 310.473 224.391 310.473 229.914V492H288.32V444.746C288.32 439.227 283.844 434.746 278.32 434.746H235.301C229.777 434.746 225.301 439.227 225.301 444.746V492H203.148V229.914C203.148 224.391 198.672 219.914 193.148 219.914H150.129C144.605 219.914 140.129 224.391 140.129 229.914V277.953C140.129 283.477 144.605 287.953 150.129 287.953C155.652 287.953 160.129 283.477 160.129 277.953V239.914H183.148V492H160.133ZM245.301 492V454.746H268.32V492H245.301ZM330.473 492V239.914H353.492V492H330.473ZM451.996 492H414.707V395.969H451.996V492Z" fill="white"></path> <path d="M159.367 319C157.715 315.024 153.539 312.477 149.242 312.863C145.106 313.238 141.559 316.238 140.481 320.242C139.387 324.297 141.031 328.742 144.516 331.098C147.836 333.344 152.258 333.379 155.614 331.184C159.594 328.582 161.172 323.391 159.367 319Z" fill="white"></path> </svg> 