<?xml version="1.0" encoding="UTF-8"?> <svg xmlns="http://www.w3.org/2000/svg" width="227" height="87" viewBox="0 0 227 87" fill="none"> <path d="M219.557 80.4543C219.03 80.4543 218.678 80.103 218.678 79.5761V59.5526C218.678 46.555 207.955 35.8407 194.947 35.8407H34.2786C18.4579 35.8407 5.62549 23.0187 5.62549 7.21074C5.62549 6.68381 5.97706 6.33252 6.50442 6.33252C7.03178 6.33252 7.38335 6.68381 7.38335 7.21074C7.38335 21.9648 19.3368 33.9086 34.1028 33.9086H194.771C208.834 33.9086 220.436 45.3255 220.436 59.5526V79.5761C220.612 79.9274 220.084 80.4543 219.557 80.4543Z" fill="#9FA0A4"></path> <path d="M13.3597 7.03532C13.3597 3.3468 10.3714 0.36084 6.67987 0.36084C2.98836 0.36084 0 3.3468 0 7.03532C0 10.7239 2.98836 13.7098 6.67987 13.7098C10.3714 13.7098 13.3597 10.7239 13.3597 7.03532Z" fill="#00ACB4"></path> <path d="M226.412 79.4005C226.412 75.712 223.424 72.7261 219.733 72.7261C216.041 72.7261 213.053 75.712 213.053 79.4005C213.053 83.0891 216.041 86.075 219.733 86.075C223.248 86.075 226.412 83.0891 226.412 79.4005Z" fill="#00ACB4"></path> </svg> 