<?xml version="1.0" encoding="UTF-8"?> <svg xmlns="http://www.w3.org/2000/svg" width="481" height="481" viewBox="0 0 481 481" fill="none"> <g clip-path="url(#clip0)"> <path d="M432.003 192.006C436.421 192.006 440.003 188.424 440.003 184.006V160.006H472.003C476.421 160.006 480.003 156.424 480.003 152.006V72.006C480.003 68.407 477.6 65.251 474.131 64.294L242.131 0.294C240.739 -0.098 239.267 -0.098 237.875 0.294L5.87493 64.294C2.40593 65.251 0.00292969 68.407 0.00292969 72.006V152.006C0.00292969 156.424 3.58493 160.006 8.00293 160.006H40.0029V184.006C40.0029 188.424 43.5849 192.006 48.0029 192.006H56.0029V320.006H48.0029C43.5849 320.006 40.0029 323.588 40.0029 328.006V352.006H24.0029C19.5849 352.006 16.0029 355.588 16.0029 360.006V384.006H8.00293C3.58493 384.006 0.00292969 387.588 0.00292969 392.006V424.006C0.00292969 428.424 3.58493 432.006 8.00293 432.006H192.003V472.006C192.003 476.424 195.585 480.006 200.003 480.006H472.003C476.421 480.006 480.003 476.424 480.003 472.006V296.006C480.003 291.588 476.421 288.006 472.003 288.006H424.003V192.006H432.003V192.006ZM16.0029 144.006V78.102L240.003 16.302L464.003 78.102V144.006H16.0029ZM272.003 176.006V160.006H320.003V176.006H312.003H272.003ZM304.003 192.006V288.006H288.003V192.006H304.003V192.006ZM320.003 192.006H328.003C332.421 192.006 336.003 188.424 336.003 184.006V160.006H360.003V184.006C360.003 188.424 363.585 192.006 368.003 192.006H376.003V288.006H320.003V192.006ZM264.003 192.006H272.003V288.006H208.003V192.006H216.003C220.421 192.006 224.003 188.424 224.003 184.006V160.006H256.003V184.006C256.003 188.424 259.585 192.006 264.003 192.006ZM112.003 320.006H104.003V192.006H112.003C116.421 192.006 120.003 188.424 120.003 184.006V160.006H144.003V184.006C144.003 188.424 147.585 192.006 152.003 192.006H160.003V320.006H152.003C147.585 320.006 144.003 323.588 144.003 328.006V352.006H120.003V328.006C120.003 323.588 116.421 320.006 112.003 320.006ZM56.0029 176.006V160.006H104.003V176.006H56.0029ZM88.0029 192.006V320.006H72.0029V192.006H88.0029V192.006ZM56.0029 336.006H104.003V352.006H56.0029V336.006ZM192.003 416.006H16.0029V400.006H192.003V416.006ZM192.003 384.006H32.0029V368.006H192.003V384.006ZM192.003 352.006H160.003V336.006H192.003V352.006ZM192.003 320.006H176.003V192.006H192.003V320.006ZM160.003 176.006V160.006H208.003V176.006H200.003H160.003ZM464.003 464.006H208.003V368.006H464.003V464.006ZM464.003 352.006H208.003V336.006H464.003V352.006ZM464.003 304.006V320.006H208.003V304.006H464.003ZM392.003 288.006V192.006H408.003V288.006H392.003ZM376.003 176.006V160.006H424.003V176.006H376.003Z" fill="white"></path> <path d="M442.131 88.662L242.131 33.462C240.739 33.07 239.267 33.07 237.875 33.462L37.8749 88.662C34.4059 89.619 32.0029 92.775 32.0029 96.374V120.006C32.0029 124.424 35.5849 128.006 40.0029 128.006H440.003C444.421 128.006 448.003 124.424 448.003 120.006V96.374C448.003 92.775 445.6 89.619 442.131 88.662ZM432.003 112.006H48.0029V102.47L240.003 49.502L432.003 102.47V112.006Z" fill="white"></path> <path d="M216.003 80.0059C216.003 93.2609 226.748 104.006 240.003 104.006C253.258 104.006 264.003 93.2609 264.003 80.0059C264.003 66.7509 253.258 56.0059 240.003 56.0059C226.748 56.0059 216.003 66.7509 216.003 80.0059ZM248.003 80.0059C248.003 84.4239 244.421 88.0059 240.003 88.0059C235.585 88.0059 232.003 84.4239 232.003 80.0059C232.003 75.5879 235.585 72.0059 240.003 72.0059C244.421 72.0059 248.003 75.5879 248.003 80.0059Z" fill="white"></path> <path d="M408.003 441.766C417.812 450.681 432.99 449.956 441.906 440.148C450.821 430.339 450.096 415.161 440.288 406.245C435.834 402.197 430.022 399.97 424.004 400.006C418.081 400.027 412.377 402.251 408.004 406.246C398.195 397.331 383.017 398.055 374.101 407.863C365.186 417.672 365.91 432.85 375.718 441.766C384.872 450.086 398.849 450.086 408.003 441.766ZM424.003 416.006C428.421 416.006 432.003 419.588 432.003 424.006C432.003 428.424 428.421 432.006 424.003 432.006C419.585 432.006 416.003 428.424 416.003 424.006C416.003 419.588 419.585 416.006 424.003 416.006ZM392.003 416.006C396.421 416.006 400.003 419.588 400.003 424.006C400.003 428.424 396.421 432.006 392.003 432.006C387.585 432.006 384.003 428.424 384.003 424.006C384.003 419.588 387.585 416.006 392.003 416.006Z" fill="white"></path> <path d="M232.003 432.006H248.003C252.421 432.006 256.003 428.424 256.003 424.006C256.003 419.588 252.421 416.006 248.003 416.006H232.003C227.585 416.006 224.003 419.588 224.003 424.006C224.003 428.424 227.585 432.006 232.003 432.006Z" fill="white"></path> <path d="M280.003 432.006H344.003C348.421 432.006 352.003 428.424 352.003 424.006C352.003 419.588 348.421 416.006 344.003 416.006H280.003C275.585 416.006 272.003 419.588 272.003 424.006C272.003 428.424 275.585 432.006 280.003 432.006Z" fill="white"></path> </g> <defs> <clipPath id="clip0"> <rect width="480.006" height="480.006" fill="white"></rect> </clipPath> </defs> </svg> 