<?xml version="1.0" encoding="UTF-8"?> <svg xmlns="http://www.w3.org/2000/svg" width="271" height="64" viewBox="0 0 271 64" fill="none"> <g clip-path="url(#clip0)"> <path d="M94.5 42.8001L91.6 51.6001H83.8L98.2 11.6001H105.9L120.3 51.6001H112.2L102.3 21.8001L101.9 19.8001L101.4 21.9001L96.7 36.2001L96 37.3001L96.8 37.2001H101C101.8 37.2001 102.5 37.4001 103.1 37.8001C103.7 38.2001 104.2 38.6001 104.6 39.2001C105 39.8001 105.4 40.4001 105.7 41.0001C106 41.7001 106.3 42.3001 106.4 42.9001H94.5V42.8001Z" fill="white"></path> <path d="M135.3 51.6001H126.9L137.8 33.7001C138.1 34.2001 138.5 34.8001 139 35.6001C139.4 36.4001 139.8 37.2001 140.1 38.1001C140.4 39.0001 140.5 39.9001 140.5 40.9001C140.5 41.9001 140.3 42.8001 139.8 43.6001L135.3 51.6001ZM127.4 11.6001H136.1L142.9 24.8001L143.5 26.5001L143.9 24.8001L150.7 11.6001H159.3L147.4 31.4001L160 51.7001H151.5L127.4 11.6001Z" fill="white"></path> <path d="M171.7 11.6001H195.7V17.3001H179.6V46.0001H196.6V51.7001H171.7V11.6001ZM181.7 33.4001C181.9 32.8001 182.1 32.2001 182.4 31.5001C182.7 30.8001 183.1 30.2001 183.5 29.7001C183.9 29.2001 184.5 28.7001 185.1 28.4001C185.7 28.1001 186.4 27.9001 187.2 27.9001H193.9V33.5001H181.7V33.4001Z" fill="white"></path> <path d="M209.6 11.6001H217.5V46.0001H231.9V51.7001H209.5V11.6001H209.6Z" fill="white"></path> <path d="M251.6 38.3C252.4 38.3 253.1 38.5 253.7 38.8C254.3 39.1 254.8 39.6 255.3 40.1C255.7 40.6 256.1 41.2 256.4 41.9C256.7 42.6 256.9 43.2 257.1 43.8H241.1V38.5L257.1 13H266.4V38.3H270.9V43.9H266.4V51.7H259.1V23.1L259.2 21.3L258.4 22.8L249.4 37.2L248.5 38.3L249.7 38.2H251.6V38.3Z" fill="white"></path> <path d="M27.9001 27.8001C37.2001 18.5001 46.5001 12.8001 48.7001 15.0001C49.3001 15.6001 49.3001 16.6001 48.9001 18.1001C49.7001 19.0001 50.5001 19.8001 51.3001 20.7001C51.6001 20.0001 51.8001 19.4001 52.0001 18.7001C52.9001 15.5001 51.9001 13.7001 50.9001 12.8001C49.9001 11.9001 48.1001 10.9001 45.0001 11.7001C43.4001 12.1001 41.5001 13.0001 39.3001 14.4001C35.2001 16.9001 30.3001 20.9001 25.7001 25.6001C25.0001 26.3001 24.3001 27.0001 23.6001 27.7001C24.3001 28.5001 25.0001 29.3001 25.7001 30.1001C26.4001 29.4001 27.1001 28.6001 27.9001 27.8001Z" fill="white"></path> <path d="M23.9001 23.9001C35.9001 11.9001 49.2001 5.80009 53.6001 10.2001C55.8001 12.4001 55.3001 17.0001 52.7001 22.5001C53.4001 23.4001 54.2001 24.3001 54.8001 25.2001C58.5001 18.1001 59.5001 11.7001 55.8001 7.90009C49.1001 1.20009 33.6001 9.80009 21.7001 21.6001C21.2001 22.1001 20.6001 22.7001 20.1001 23.3001C20.7001 24.1001 21.3001 25.0001 22.0001 25.8001C22.6001 25.2001 23.3001 24.6001 23.9001 23.9001Z" fill="white"></path> <path d="M20.1001 20.1C34.6001 5.6 51.6001 -0.800004 58.1001 5.7C62.2001 9.8 61.2001 18 56.3001 27.1C57.0001 28.1 57.6001 29.1 58.3001 30C59.7001 27.6 60.9001 25.1 61.8001 22.7C65.0001 14.3 64.5001 7.4 60.4001 3.3C56.3001 -0.800004 49.4001 -1.3 41.0001 1.9C33.4001 5 25.2001 10.6 17.9001 17.9C17.6001 18.2 17.3001 18.5 17.1001 18.7C17.6001 19.6 18.2001 20.5 18.8001 21.5C19.2001 21 19.6001 20.5 20.1001 20.1Z" fill="white"></path> <path d="M27.9002 35.8999C18.6002 26.5999 12.9002 17.2999 15.1002 15.0999C15.7002 14.4999 16.7002 14.4999 18.2002 14.8999C19.1002 14.0999 19.9002 13.2999 20.8002 12.4999C20.1002 12.1999 19.5002 11.9999 18.8002 11.7999C15.6002 10.8999 13.8002 11.8999 12.9002 12.8999C12.0002 13.8999 11.0002 15.6999 11.8002 18.7999C12.2002 20.3999 13.1002 22.2999 14.5002 24.4999C17.0002 28.5999 21.0002 33.4999 25.7002 38.0999C26.4002 38.7999 27.1002 39.4999 27.8002 40.1999C28.6002 39.4999 29.4002 38.7999 30.2002 38.0999C29.4002 37.3999 28.6002 36.6999 27.9002 35.8999Z" fill="white"></path> <path d="M23.9002 39.8999C11.9002 27.8999 5.80019 14.5999 10.2002 10.1999C12.4002 7.99986 17.0002 8.49986 22.5002 11.0999C23.4002 10.3999 24.3002 9.59986 25.2002 8.99986C18.2002 5.19986 11.7002 4.19986 8.00019 7.99986C1.30019 14.6999 9.90019 30.1999 21.7002 42.0999C22.2002 42.5999 22.8002 43.1999 23.4002 43.6999C24.2002 43.0999 25.1002 42.4999 25.9002 41.7999C25.2002 41.0999 24.6002 40.4999 23.9002 39.8999Z" fill="white"></path> <path d="M20.1002 43.6999C5.60019 29.1999 -0.799809 12.1999 5.70019 5.69989C9.80019 1.59989 18.0002 2.59989 27.1002 7.49989C28.1002 6.79989 29.1002 6.19989 30.0002 5.49989C27.6002 4.09989 25.1002 2.89989 22.7002 1.99989C14.4002 -1.10011 7.60019 -0.600114 3.50019 3.49989C-0.599809 7.59989 -1.09981 14.4999 2.10019 22.8999C5.00019 30.4999 10.6002 38.6999 17.9002 45.9999C18.2002 46.2999 18.5002 46.5999 18.7002 46.7999C19.6002 46.2999 20.5002 45.6999 21.5002 45.0999C21.0002 44.5999 20.6002 44.0999 20.1002 43.6999Z" fill="white"></path> <path d="M35.9002 35.9001C26.6002 45.2001 17.3002 50.9001 15.1002 48.7001C14.5002 48.1001 14.5002 47.1001 14.9002 45.6001C14.1002 44.7001 13.3002 43.9001 12.5002 43.0001C12.2002 43.7001 12.0002 44.3001 11.8002 45.0001C10.9002 48.2001 11.9002 50.0001 12.9002 50.9001C13.9002 51.8001 15.7002 52.8001 18.8002 52.0001C20.4002 51.6001 22.3002 50.7001 24.5002 49.3001C28.6002 46.8001 33.5002 42.8001 38.1002 38.1001C38.8002 37.4001 39.5002 36.7001 40.2002 36.0001C39.5002 35.2001 38.8002 34.4001 38.1002 33.6001C37.4002 34.4001 36.7002 35.2001 35.9002 35.9001Z" fill="white"></path> <path d="M39.9001 39.8001C27.9001 51.8001 14.6001 57.9001 10.2001 53.5001C8.00012 51.3001 8.50012 46.7001 11.1001 41.2001C10.4001 40.3001 9.60012 39.4001 9.00012 38.5001C5.30012 45.6001 4.30012 52.0001 8.00012 55.8001C14.7001 62.5001 30.2001 53.9001 42.1001 42.1001C42.6001 41.6001 43.2001 41.0001 43.7001 40.4001C43.1001 39.6001 42.5001 38.7001 41.8001 37.9001C41.1001 38.5001 40.5001 39.2001 39.9001 39.8001Z" fill="white"></path> <path d="M43.7001 43.7002C29.2001 58.2002 12.2001 64.6002 5.70009 58.1002C1.60009 54.0002 2.60009 45.8002 7.50009 36.6002C6.80009 35.6002 6.20009 34.6002 5.50009 33.7002C4.10009 36.1002 2.90009 38.6002 2.00009 41.0002C-1.19991 49.4002 -0.699906 56.3002 3.40009 60.4002C7.50009 64.5002 14.4001 65.0002 22.8001 61.8002C30.4001 58.9002 38.6001 53.3002 45.9001 46.0002C46.2001 45.7002 46.5001 45.4002 46.7001 45.2002C46.2001 44.3002 45.6001 43.4002 45.0001 42.4002C44.6001 42.8002 44.1001 43.2002 43.7001 43.7002Z" fill="white"></path> <path d="M35.9001 27.8C45.2001 37.1 50.9001 46.4 48.7001 48.6C48.1001 49.2 47.1001 49.2 45.6001 48.8C44.7001 49.6 43.9001 50.4 43.0001 51.2C43.7001 51.5 44.3001 51.7 45.0001 51.9C48.2001 52.8 50.0001 51.8 50.9001 50.8C51.9001 49.8 52.8001 48 52.0001 44.9C51.6001 43.3 50.7001 41.4 49.3001 39.2C46.8001 35.1 42.8001 30.2 38.1001 25.6C37.4001 24.9 36.7001 24.2 36.0001 23.5C35.2001 24.2 34.4001 24.9 33.6001 25.6C34.4001 26.3 35.2001 27.1 35.9001 27.8Z" fill="white"></path> <path d="M39.9 23.9001C51.9 35.9001 58 49.2001 53.6 53.6001C51.4 55.8001 46.8 55.3001 41.3 52.7001C40.4 53.4001 39.5 54.2001 38.6 54.8001C45.7 58.5001 52.1 59.5001 55.9 55.8001C62.6 49.1001 54 33.6001 42.2 21.7001C41.7 21.2001 41.1 20.6001 40.5 20.1001C39.7 20.7001 38.8 21.3001 38 22.0001C38.5 22.6001 39.2 23.3001 39.9 23.9001Z" fill="white"></path> <path d="M43.7001 20.1001C58.2001 34.6001 64.6 51.6001 58.1 58.1001C54 62.2001 45.8001 61.2001 36.7001 56.3001C35.7001 57.0001 34.7 57.6001 33.8 58.3001C36.2 59.7001 38.7 60.9001 41.1 61.8001C49.5 65.0001 56.4 64.5001 60.5 60.4001C64.6 56.3001 65.1001 49.4001 61.9001 41.0001C59.0001 33.4001 53.4 25.2001 46.1 17.9001C45.8 17.6001 45.5 17.3001 45.3 17.1001C44.4 17.6001 43.5 18.2001 42.5 18.8001C42.8 19.2001 43.2001 19.6001 43.7001 20.1001Z" fill="white"></path> </g> <defs> <clipPath id="clip0"> <rect width="270.8" height="63.8" fill="white"></rect> </clipPath> </defs> </svg> 