<?xml version="1.0" encoding="UTF-8"?> <svg xmlns="http://www.w3.org/2000/svg" width="100" height="100" viewBox="0 0 100 100" fill="none"> <circle cx="50" cy="50" r="50" fill="#D3D3D3"></circle> <g clip-path="url(#clip0)"> <path d="M50.5001 50.475C54.5863 50.475 57.8991 46.5977 57.8991 41.8147C57.8991 35.1821 54.5864 33.1545 50.5001 33.1545C46.4136 33.1545 43.1011 35.1821 43.1011 41.8147C43.1012 46.5977 46.4137 50.475 50.5001 50.475Z" fill="#606060"></path> <path d="M66.8387 63.2218L63.1058 54.8128C62.935 54.428 62.6351 54.1088 62.2617 53.9144L56.4685 50.8987C56.3407 50.8323 56.1861 50.8452 56.0712 50.9322C54.4327 52.1715 52.5061 52.8265 50.5001 52.8265C48.4937 52.8265 46.5673 52.1715 44.9288 50.9322C44.8136 50.8452 44.6589 50.8323 44.5312 50.8987L38.7384 53.9144C38.3649 54.1088 38.0652 54.4278 37.8943 54.8128L34.1614 63.2218C33.9041 63.8015 33.9568 64.4648 34.3026 64.9965C34.6482 65.5282 35.2331 65.8455 35.8672 65.8455H65.1327C65.7669 65.8455 66.3519 65.528 66.6975 64.9965C67.0431 64.4648 67.096 63.8013 66.8387 63.2218Z" fill="#606060"></path> </g> <defs> <clipPath id="clip0"> <rect width="33" height="33" fill="white" transform="translate(34 33)"></rect> </clipPath> </defs> </svg> 