<?xml version="1.0" encoding="UTF-8"?> <svg xmlns="http://www.w3.org/2000/svg" width="227" height="86" viewBox="0 0 227 86" fill="none"> <path d="M6.67971 80.0935C6.15235 80.0935 5.80078 79.7422 5.80078 79.2152V59.1918C5.80078 45.1403 17.2269 33.5478 31.4656 33.5478H192.134C206.9 33.5478 218.854 21.604 218.854 6.8499C218.854 6.32297 219.205 5.97168 219.732 5.97168C220.26 5.97168 220.611 6.32297 220.611 6.8499C220.611 22.6579 207.779 35.4799 191.958 35.4799H31.2898C18.2816 35.4799 7.55864 46.1942 7.55864 59.1918V79.2152C7.73443 79.5665 7.20707 80.0935 6.67971 80.0935Z" fill="#9FA0A4"></path> <path d="M226.412 6.67448C226.412 2.98596 223.424 0 219.733 0C216.041 0 213.053 2.98596 213.053 6.67448C213.053 10.363 216.041 13.349 219.733 13.349C223.424 13.349 226.412 10.363 226.412 6.67448Z" fill="#2A526A"></path> <path d="M13.3598 79.0397C13.3598 75.3512 10.3714 72.3652 6.67989 72.3652C2.98837 72.3652 0 75.3512 0 79.0397C0 82.7282 2.98837 85.7142 6.67989 85.7142C10.3714 85.7142 13.3598 82.7282 13.3598 79.0397Z" fill="#2A526A"></path> </svg> 