<?xml version="1.0" encoding="UTF-8"?> <svg xmlns="http://www.w3.org/2000/svg" width="227" height="87" viewBox="0 0 227 87" fill="none"> <path d="M219.557 5.98171C219.03 5.98171 218.678 6.333 218.678 6.85993L218.678 26.8834C218.678 39.881 207.955 50.5953 194.947 50.5953L34.2786 50.5953C18.4579 50.5953 5.62549 63.4173 5.62549 79.2253C5.62549 79.7522 5.97706 80.1035 6.50442 80.1035C7.03178 80.1035 7.38335 79.7522 7.38335 79.2253C7.38335 64.4712 19.3368 52.5274 34.1028 52.5274L194.771 52.5274C208.834 52.5274 220.436 41.1105 220.436 26.8834L220.436 6.85993C220.612 6.50865 220.084 5.98171 219.557 5.98171Z" fill="#9FA0A4"></path> <path d="M13.3597 79.4007C13.3597 83.0892 10.3714 86.0752 6.67987 86.0752C2.98836 86.0752 -2.61041e-07 83.0892 -5.83502e-07 79.4007C-9.05963e-07 75.7122 2.98836 72.7262 6.67987 72.7262C10.3714 72.7262 13.3597 75.7122 13.3597 79.4007Z" fill="#6B88B6"></path> <path d="M226.412 7.03549C226.412 10.724 223.424 13.71 219.733 13.71C216.041 13.71 213.053 10.724 213.053 7.03549C213.053 3.34697 216.041 0.361023 219.733 0.361023C223.248 0.361022 226.412 3.34697 226.412 7.03549Z" fill="#6B88B6"></path> </svg> 