<?xml version="1.0" encoding="UTF-8"?> <svg xmlns="http://www.w3.org/2000/svg" width="100" height="100" viewBox="0 0 100 100" fill="none"> <circle cx="50" cy="50" r="50" fill="#D3D3D3"></circle> <path d="M48.3569 53.9699C48.3569 48.9089 44.2395 44.7914 39.1784 44.7914C34.1173 44.7914 30 48.9089 30 53.9699C30 55.453 30.3539 56.8549 30.9813 58.0959L39.1784 74.9999L47.3769 58.0933C48.0034 56.8528 48.3569 55.4519 48.3569 53.9699ZM39.1784 59.0493C36.3777 59.0493 34.099 56.7706 34.099 53.9699C34.099 51.1692 36.3777 48.8906 39.1784 48.8906C41.9792 48.8906 44.2577 51.1692 44.2577 53.9699C44.2577 56.7706 41.9792 59.0493 39.1784 59.0493Z" fill="#606060"></path> <path d="M65.1861 25C62.6234 25 60.5383 27.0849 60.5383 29.6477C60.5383 30.3987 60.7176 31.1085 61.0353 31.7371L65.1861 40.2969L69.3375 31.7357C69.6548 31.1076 69.8339 30.3982 69.8339 29.6478C69.8339 27.0849 67.7487 25 65.1861 25ZM65.1861 32.2197C63.7678 32.2197 62.614 31.066 62.614 29.6477C62.614 28.2295 63.7678 27.0756 65.1861 27.0756C66.6042 27.0756 67.7581 28.2295 67.7581 29.6477C67.7581 31.066 66.6042 32.2197 65.1861 32.2197Z" fill="#606060"></path> <path d="M61.1382 55.152C60.9497 54.2652 60.7048 53.3962 60.3963 52.543C59.9828 51.3998 59.4869 50.2827 59.107 49.1265C58.3971 46.9653 59.6218 45.1617 59.852 44.8338C60.2553 44.2598 60.7268 43.733 61.2244 43.2396C62.1824 42.2898 63.2389 41.4408 64.3442 40.6589C64.2073 40.4467 64.0746 40.2323 63.9483 40.0139C62.3585 40.6371 54.1829 43.4945 54.3822 49.807C54.4222 51.0725 54.9111 52.2769 55.2124 53.5035C55.3576 54.0946 55.4835 54.6909 55.5605 55.295C55.5937 55.567 55.6141 55.8405 55.6363 56.1139C55.637 56.1118 55.6368 56.1103 55.6355 56.1092C55.6362 56.1171 55.6565 56.9755 55.6184 57.3474C55.4991 58.5116 55.3272 59.6879 54.8364 60.7558C54.3799 61.7487 53.6912 62.6122 52.8394 63.2948C50.892 64.8549 48.3118 65.4786 45.8772 65.7293C45.7613 65.7415 45.6453 65.7519 45.5294 65.762L41.1824 74.726C43.3272 74.5928 45.4666 74.2992 47.5538 73.7855C50.0101 73.1809 52.4038 72.2677 54.5487 70.914C56.6917 69.5618 58.5346 67.7324 59.7615 65.5051C61.0449 63.1754 61.5591 60.5068 61.4497 57.8625C61.4125 56.9593 61.3268 56.0385 61.1382 55.152Z" fill="#606060"></path> </svg> 