<?xml version="1.0" encoding="UTF-8"?> <svg xmlns="http://www.w3.org/2000/svg" width="100" height="100" viewBox="0 0 100 100" fill="none"> <circle cx="50" cy="50" r="50" fill="#D3D3D3"></circle> <path d="M62.6589 39.4066C62.6589 41.5324 64.3886 43.2621 66.5144 43.2621C68.6402 43.2621 70.3699 41.5324 70.3699 39.4066C70.3699 37.2808 68.6402 35.5511 66.5144 35.5511C64.3886 35.5511 62.6589 37.2807 62.6589 39.4066V39.4066Z" fill="#606060"></path> <path d="M70.4602 44.5416C70.4513 44.5386 69.4799 44.2405 69.4799 44.2405C69.1281 44.1331 68.746 44.1992 68.4515 44.4197L66.5145 45.87L64.5774 44.4197C64.2827 44.1991 63.9005 44.1329 63.5491 44.2405C63.5491 44.2405 62.5776 44.5386 62.5687 44.5416C61.0057 45.0628 59.9556 46.5197 59.9556 48.1672V53.9959C59.9556 54.2208 60.0212 54.4407 60.145 54.6285L62.0997 57.6033V65.4156C62.0997 66.0519 62.6154 66.5677 63.2518 66.5677H69.7774C70.4137 66.5677 70.9294 66.0519 70.9294 65.4156V57.6033L72.8842 54.6285C73.0077 54.4406 73.0735 54.2206 73.0735 53.9959V48.1672C73.0735 46.5197 72.0233 45.0628 70.4602 44.5416V44.5416Z" fill="#606060"></path> <path d="M32.5589 43.2621C34.6847 43.2621 36.4144 41.5324 36.4144 39.4066C36.4144 37.2808 34.6847 35.5511 32.5589 35.5511C30.4331 35.5511 28.7032 37.2807 28.7032 39.4066C28.7032 41.5326 30.4329 43.2621 32.5589 43.2621V43.2621Z" fill="#606060"></path> <path d="M36.5046 44.5416C36.4957 44.5386 35.5243 44.2405 35.5243 44.2405C35.1724 44.1331 34.7906 44.1992 34.496 44.4197L32.5589 45.87L30.6218 44.4197C30.3273 44.1991 29.9449 44.1329 29.5935 44.2405C29.5935 44.2405 28.6221 44.5386 28.6132 44.5416C27.0501 45.0628 26 46.5197 26 48.1672V53.9959C26 54.2208 26.0657 54.4407 26.1894 54.6285L28.1441 57.6033V65.4156C28.1441 66.0519 28.6599 66.5677 29.2962 66.5677H35.8216C36.458 66.5677 36.9737 66.0519 36.9737 65.4156V57.6033L38.9284 54.6285C39.052 54.4406 39.1178 54.2206 39.1178 53.9959V48.1672C39.1178 46.5197 38.0675 45.0628 36.5046 44.5416Z" fill="#606060"></path> <path d="M54.5096 33.9729C54.5096 31.2309 52.2787 29 49.5366 29C46.7946 29 44.5637 31.2309 44.5637 33.9729C44.5637 36.7151 46.7946 38.9458 49.5366 38.9458C52.2787 38.9458 54.5096 36.7151 54.5096 33.9729Z" fill="#606060"></path> <path d="M54.9988 41.3559L54.9905 41.3533L53.5712 40.9177C53.3473 40.8489 53.1081 40.9674 53.0276 41.1883L50.043 49.3772C49.8708 49.8496 49.2028 49.8496 49.0305 49.3772L46.046 41.1883C45.981 41.0099 45.8127 40.8981 45.6322 40.8981C45.5895 40.8981 44.0847 41.3526 44.0847 41.3526C42.2715 41.9568 41.0602 43.6376 41.0602 45.5382V54.2008C41.0602 54.2868 41.0854 54.3709 41.1326 54.4429L44.2468 59.1818V71.1728C44.2468 71.4163 44.4442 71.6136 44.6877 71.6136H54.3859C54.6294 71.6136 54.8267 71.4163 54.8267 71.1728V59.1818L57.9409 54.4429C57.9881 54.3709 58.0134 54.2868 58.0134 54.2008V45.5155C58.0132 43.6231 56.7971 41.9451 54.9988 41.3559V41.3559Z" fill="#606060"></path> <path d="M50.7027 41.1835C50.5795 41.0492 50.3992 40.9816 50.2167 40.9816H48.8564C48.6741 40.9816 48.4938 41.0492 48.3704 41.1835C48.1795 41.3915 48.1518 41.692 48.2872 41.9268L49.0143 43.0229L48.6739 45.8944L49.3443 47.6776C49.4096 47.8569 49.6632 47.8569 49.7287 47.6776L50.399 45.8944L50.0586 43.0229L50.7857 41.9268C50.9213 41.692 50.8936 41.3915 50.7027 41.1835V41.1835Z" fill="#606060"></path> </svg> 